<?xml version="1.0" encoding="utf-8"?>
<!-- Generator: Adobe Illustrator 21.1.0, SVG Export Plug-In . SVG Version: 6.00 Build 0)  -->
<svg version="1.1" id="Слой_1" xmlns="http://www.w3.org/2000/svg" xmlns:xlink="http://www.w3.org/1999/xlink" x="0px" y="0px"
	 viewBox="0 0 1000 1000" style="enable-background:new 0 0 1000 1000;" xml:space="preserve">
<style type="text/css">
	.st0{clip-path:url(#SVGID_2_);}
</style>
<g>
	<g>
		<defs>
			<rect id="SVGID_1_" x="488" y="489" width="22.8" height="24"/>
		</defs>
		<clipPath id="SVGID_2_">
			<use xlink:href="#SVGID_1_"  style="overflow:visible;"/>
		</clipPath>
		<path class="st0" d="M494.105,495.351c2.571-2.574,6.504-2.941,9.477-1.121c-1.008,0.996-2.168,2.161-2.168,2.161
			c-0.816,0.976,0.098,1.539,0.563,1.523h5.429c0.289,0,0.524,0,0.524,0h1.578c0.285,0,0.519-0.234,0.519-0.523v-7.469
			c0.035-0.68-0.715-1.344-1.492-0.582c0,0-1.281,1.25-2.164,2.125c-4.527-3.305-10.906-2.93-14.996,1.156
			c-2.387,2.387-3.496,5.551-3.363,8.676h3.863C491.738,499.164,492.473,496.984,494.105,495.351L494.105,495.351z M494.105,495.351
			"/>
		<path class="st0" d="M506.957,500c0.137,2.137-0.598,4.316-2.23,5.949c-2.575,2.57-6.504,2.938-9.477,1.121
			c1.008-0.996,2.168-2.16,2.168-2.16c0.812-0.977-0.102-1.539-0.563-1.523h-5.433c-0.285,0-0.52,0-0.52,0h-1.578
			c-0.289,0-0.523,0.234-0.523,0.519v7.469c-0.031,0.683,0.719,1.344,1.492,0.582c0,0,1.281-1.246,2.168-2.125
			c4.527,3.309,10.906,2.934,14.992-1.156c2.387-2.383,3.5-5.551,3.367-8.676H506.957z M506.957,500"/>
	</g>
</g>
</svg>
