<?xml version="1.0" encoding="utf-8"?>
<!-- Generator: Adobe Illustrator 21.1.0, SVG Export Plug-In . SVG Version: 6.00 Build 0)  -->
<svg version="1.1" id="Слой_1" xmlns="http://www.w3.org/2000/svg" xmlns:xlink="http://www.w3.org/1999/xlink" x="0px" y="0px"
	 viewBox="0 0 1000 1000" style="enable-background:new 0 0 1000 1000;" xml:space="preserve">
<style type="text/css">
	.st0{fill:#DD9323;}
	.st1{fill:#FF9900;}
</style>
<path class="st0" d="M68.897,839.662l340.142-340.143L68.896,159.376c-25.138-25.138-25.138-66.326,0-91.522l0,0
	c25.138-25.138,66.326-25.138,91.522,0l340.143,340.142L840.704,67.854c25.196-25.138,66.326-25.138,91.522,0l0,0
	c25.138,25.138,25.138,66.326,0,91.522L592.083,499.519l340.143,340.142c25.196,25.138,25.196,66.326,0,91.464l0,0
	c-25.196,25.196-66.326,25.138-91.522,0L500.561,590.982L160.418,931.125c-25.138,25.138-66.326,25.196-91.522,0l0,0
	C43.701,905.987,43.701,864.857,68.897,839.662z"/>
</svg>
